PathFileType	4	(X/Y/Z)	1H_rest_slow_left.trc
DataRate	CameraRate	NumFrames	NumMarkers	Units	OrigDataRate	OrigDataStartFrame	OrigNumFrames
250.00	250.00	21	18	mm	250.00	1701	13604
Frame#	Time	c7	r_should	l_should	clavicle	r_upa	r_elb_l	r_elb_m	r_low	r_wri_l	r_wri_m	r_met	l_upa	l_elb_l	l_elb_m	l_low	l_wri_l	l_wri_m	l_met
	X1	Y1	Z1	X2	Y2	Z2	X3	Y3	Z3	X4	Y4	Z4	X5	Y5	Z5	X6	Y6	Z6	X7	Y7	Z7	X8	Y8	Z8	X9	Y9	Z9	X10	Y10	Z10	X11	Y11	Z11	X12	Y12	Z12	X13	Y13	Z13	X14	Y14	Z14	X15	Y15	Z15	X16	Y16	Z16	X17	Y17	Z17	X18	Y18	Z18
1701	6.80000	592.20227	1412.49670	278.78729	665.72443	1360.02454	429.47876	623.64252	1366.58704	111.22897	733.86658	1287.14429	255.82555	680.33209	1156.21118	504.96411	680.07190	1068.06445	529.30737	628.40631	1028.73511	463.02719	745.23352	896.75067	515.53925	774.66168	834.47546	487.19531	710.54767	808.32013	515.40643	815.02734	756.85364	515.28357	624.87567	1181.84875	37.21765	629.25934	1107.57654	16.34536	654.72205	1050.96729	96.66918	736.89417	1152.50269	19.57366	785.55005	1206.24731	47.41878	831.96057	1151.45764	44.98154	849.81744	1259.91980	15.49655
1702	6.80400	592.20465	1412.50012	278.74747	665.67804	1360.03186	429.45956	623.70569	1366.58508	111.18521	733.87732	1287.14270	255.82266	680.28217	1156.21948	504.96228	680.01721	1068.07446	529.31152	628.47522	1028.69019	463.01047	745.20923	896.75958	515.56067	774.64532	834.49768	487.22693	710.52747	808.33569	515.42273	815.01135	756.87811	515.31915	624.93488	1181.82178	37.21960	629.34735	1107.52039	16.36815	654.74225	1050.92883	96.68763	737.07202	1152.29944	19.54492	785.82251	1205.99060	47.38063	832.15271	1151.12280	44.93079	850.15070	1259.57983	15.43479
1703	6.80800	592.20850	1412.50171	278.71161	665.63208	1360.03699	429.43652	623.77606	1366.58191	111.15102	733.88971	1287.13733	255.82848	680.23334	1156.22253	504.95828	679.96661	1068.08508	529.31195	628.54327	1028.65051	462.98969	745.18921	896.76758	515.58081	774.63666	834.52075	487.25702	710.50452	808.34766	515.44763	814.99744	756.90265	515.35596	624.98737	1181.78784	37.22002	629.43579	1107.45544	16.38655	654.77710	1050.88611	96.70212	737.25409	1152.09998	19.51423	786.08746	1205.73450	47.33575	832.34369	1150.79431	44.87905	850.47577	1259.24561	15.37580
1704	6.81200	592.21161	1412.50305	278.67758	665.58325	1360.04102	429.41998	623.84973	1366.57263	111.11390	733.89648	1287.13586	255.83733	680.18408	1156.22864	504.95041	679.91779	1068.08435	529.30927	628.73962	1028.69446	463.04376	745.17175	896.77856	515.59619	774.62421	834.54419	487.28268	710.48407	808.35815	515.46881	814.98297	756.92352	515.39459	625.03638	1181.75989	37.22037	629.52283	1107.39136	16.40643	654.80975	1050.84546	96.71819	737.43817	1151.90332	19.49159	786.35217	1205.47473	47.29377	832.54633	1150.48132	44.82672	850.75952	1258.96790	15.33223
1705	6.81600	592.21667	1412.50110	278.63431	665.53058	1360.04163	429.40134	623.92566	1366.56543	111.07656	733.91272	1287.12964	255.84152	680.13226	1156.23120	504.94296	679.86969	1068.08655	529.30414	629.07990	1028.83716	463.19281	745.15234	896.79181	515.61377	774.61035	834.56372	487.30774	710.46899	808.36743	515.48175	814.97705	756.94965	515.43323	625.07983	1181.73572	37.21775	629.60828	1107.32434	16.43015	654.82782	1050.80579	96.74355	737.62177	1151.71069	19.47585	786.62329	1205.21228	47.25879	832.73901	1150.16479	44.75666	850.98419	1258.75330	15.30398
1706	6.82000	592.22284	1412.49707	278.58621	665.48206	1360.04028	429.38168	624.00183	1366.55469	111.03111	733.92413	1287.11951	255.84752	680.08276	1156.23547	504.93698	679.82489	1068.09070	529.29437	629.14349	1028.86548	463.21616	745.13611	896.80896	515.63348	774.60400	834.57819	487.32761	710.45557	808.37506	515.49316	814.97650	756.97961	515.47150	625.12079	1181.70886	37.21219	629.69049	1107.25659	16.45163	654.85901	1050.77197	96.77325	737.79681	1151.52197	19.45833	786.89227	1204.95508	47.22916	832.91931	1149.84180	44.67195	851.27484	1258.44360	15.24189
1707	6.82400	592.22705	1412.49573	278.54028	665.43140	1360.04028	429.36026	624.07507	1366.54053	110.99194	733.93024	1287.10986	255.85425	680.03479	1156.23926	504.92477	679.77692	1068.09180	529.28284	629.13953	1028.86389	463.21808	745.11591	896.82605	515.64532	774.59827	834.59271	487.35211	710.44690	808.38556	515.49908	814.97418	757.01331	515.51141	625.15698	1181.68335	37.20010	629.77014	1107.19055	16.46790	654.88239	1050.72144	96.79186	737.97156	1151.33606	19.42995	787.15619	1204.70203	47.20045	833.10046	1149.51685	44.59522	851.58002	1258.10596	15.17338
1708	6.82800	592.23187	1412.49756	278.49316	665.38281	1360.03796	429.34628	624.14044	1366.52734	110.95580	733.93597	1287.10461	255.86438	679.98956	1156.24084	504.91476	679.72827	1068.09192	529.26880	629.10657	1028.86536	463.20752	745.09766	896.84583	515.65466	774.59473	834.61676	487.37888	710.44153	808.39874	515.50067	814.98065	757.04944	515.54773	625.19232	1181.65613	37.19257	629.84674	1107.11792	16.48263	654.89844	1050.66455	96.80446	738.14752	1151.15051	19.40084	787.43018	1204.44678	47.16385	833.28546	1149.19519	44.53511	851.89246	1257.75403	15.11733
1709	6.83200	592.23560	1412.49817	278.44971	665.33490	1360.04199	429.33286	624.19733	1366.51831	110.92197	733.94397	1287.10034	255.87207	679.94043	1156.24231	504.90146	679.68396	1068.09753	529.25745	629.06543	1028.86145	463.20145	745.08221	896.86731	515.66547	774.58807	834.64551	487.40833	710.44257	808.41113	515.50159	814.99469	757.08563	515.58722	625.22302	1181.63452	37.18146	629.91833	1107.04761	16.48988	654.92645	1050.61023	96.80778	738.32635	1150.95544	19.37869	787.70819	1204.18567	47.13258	833.47284	1148.87891	44.47718	852.20380	1257.40747	15.06166
1710	6.83600	592.23352	1412.49878	278.41104	665.29004	1360.04285	429.31485	624.25116	1366.51050	110.88659	733.95276	1287.10181	255.87788	679.88257	1156.24756	504.89062	679.63483	1068.10339	529.24731	629.03235	1028.85913	463.18884	745.07220	896.89172	515.68079	774.58093	834.67877	487.44037	710.43945	808.42773	515.50745	815.00226	757.12823	515.63141	625.24890	1181.60779	37.17383	629.98425	1106.98059	16.50216	654.95154	1050.56519	96.80114	738.50476	1150.75610	19.36177	787.97565	1203.92041	47.11513	833.65631	1148.55701	44.40888	852.51288	1257.07324	15.00134
1711	6.84000	592.23059	1412.49915	278.37936	665.24091	1360.04407	429.29965	624.30072	1366.50452	110.85632	733.91150	1287.17297	255.83577	679.82806	1156.25134	504.88156	679.58447	1068.10303	529.24457	629.00098	1028.85742	463.16946	745.06390	896.91199	515.69495	774.57776	834.71246	487.47025	710.43335	808.44495	515.51733	815.01147	757.17413	515.67755	625.44348	1181.56714	37.13184	630.04431	1106.90808	16.51278	654.96448	1050.51477	96.79789	738.67273	1150.55945	19.34111	788.22968	1203.64783	47.09358	833.82770	1148.22559	44.34502	852.81702	1256.73450	14.94191
1712	6.84400	592.22803	1412.49658	278.34732	665.19196	1360.04700	429.28308	624.34216	1366.49536	110.82955	733.81512	1287.33032	255.75218	679.77026	1156.25537	504.87799	679.53540	1068.10327	529.24146	628.97174	1028.85266	463.14929	745.05615	896.93390	515.71100	774.57391	834.73981	487.50580	710.42761	808.45947	515.52350	815.02124	757.21759	515.71869	625.86273	1181.51184	37.05041	630.10803	1106.83728	16.51925	654.97540	1050.47253	96.80124	738.83801	1150.35791	19.32072	788.48407	1203.37903	47.07492	833.99445	1147.90735	44.27552	853.11560	1256.38550	14.87808
1713	6.84800	592.22491	1412.49670	278.31094	665.14276	1360.05249	429.26639	624.37549	1366.49109	110.80056	733.79205	1287.36768	255.73402	679.70837	1156.26074	504.87411	679.48663	1068.10498	529.23285	628.93854	1028.85266	463.13464	745.06134	896.94910	515.71765	774.57782	834.76910	487.53137	710.42474	808.48138	515.52759	815.02979	757.25867	515.75922	625.98553	1181.47217	37.02175	630.17261	1106.76953	16.52495	654.98462	1050.42163	96.79720	738.99707	1150.16748	19.30248	788.74359	1203.11670	47.05886	834.17206	1147.59619	44.21461	853.42096	1256.03601	14.81586
1714	6.85200	592.21912	1412.49377	278.27399	665.09308	1360.06140	429.25446	624.40613	1366.49341	110.77224	733.78479	1287.37488	255.72917	679.64801	1156.27100	504.87274	679.44250	1068.11169	529.22247	628.91199	1028.85657	463.11688	745.07666	896.96667	515.72327	774.58179	834.79871	487.54861	710.42615	808.50562	515.53204	815.04425	757.30151	515.79950	626.03162	1181.44312	37.00309	630.23553	1106.70068	16.53020	654.99091	1050.37939	96.79404	739.14990	1149.98132	19.28905	789.00256	1202.86169	47.04192	834.34491	1147.27222	44.16131	853.72766	1255.68933	14.76131
1715	6.85600	592.21088	1412.48962	278.24133	665.04846	1360.06482	429.23499	624.43744	1366.48743	110.74345	733.78101	1287.37451	255.73444	679.59167	1156.28662	504.87469	679.39984	1068.12024	529.21313	628.88336	1028.86279	463.09848	745.09656	896.98566	515.73041	774.58881	834.83752	487.56705	710.42493	808.53424	515.53748	815.05585	757.34357	515.83881	626.05511	1181.41907	36.98128	630.29968	1106.64478	16.53174	655.00867	1050.35144	96.78348	739.30499	1149.79968	19.26884	789.25110	1202.61450	47.01438	834.50458	1146.94897	44.10270	854.03790	1255.34460	14.70890
1716	6.86000	592.19995	1412.48682	278.20483	665.00488	1360.06860	429.21426	624.46881	1366.47900	110.71813	733.78186	1287.37329	255.73274	679.53119	1156.29956	504.87494	679.35333	1068.12695	529.20935	628.84778	1028.87048	463.07721	745.12518	897.00110	515.73700	774.58490	834.87134	487.58936	710.42261	808.56061	515.53809	815.06348	757.38989	515.87415	626.07428	1181.39941	36.96161	630.36157	1106.58557	16.53092	655.00134	1050.32190	96.77094	739.46545	1149.62036	19.24046	789.49304	1202.36609	46.98819	834.65436	1146.62085	44.03177	854.33875	1254.99988	14.65829
1717	6.86400	592.19287	1412.48193	278.16086	664.96527	1360.07190	429.19348	624.49872	1366.47534	110.69330	733.77893	1287.37390	255.72235	679.47589	1156.30750	504.86462	679.30890	1068.13196	529.20227	628.82007	1028.87415	463.05258	745.16272	897.01215	515.74030	774.57977	834.90369	487.61063	710.42108	808.58264	515.53296	815.07434	757.43616	515.90912	626.09338	1181.38123	36.94296	630.41907	1106.53528	16.52244	654.97772	1050.30103	96.76121	739.62555	1149.43506	19.20968	789.74438	1202.10657	46.95900	834.80603	1146.29407	43.96733	854.63513	1254.64941	14.60838
1718	6.86800	592.19147	1412.48096	278.11548	664.93567	1360.07458	429.16901	624.52997	1366.46790	110.66728	733.77649	1287.36975	255.71411	679.42957	1156.31812	504.85504	679.26996	1068.14001	529.18884	628.79858	1028.87280	463.03128	745.20636	897.01807	515.73230	774.58948	834.93530	487.62234	710.42389	808.60217	515.52118	815.08771	757.47809	515.93988	626.11365	1181.36316	36.92393	630.47754	1106.48340	16.50938	654.94598	1050.26721	96.74027	739.78278	1149.24719	19.17602	789.99774	1201.84338	46.92092	834.95813	1145.97302	43.89851	854.93909	1254.29224	14.56659
1719	6.87200	592.18799	1412.47974	278.06674	664.90131	1360.08313	429.14401	624.56128	1366.46924	110.63657	733.78088	1287.37073	255.70911	679.38080	1156.33508	504.84360	679.23218	1068.15100	529.17188	628.77740	1028.87915	463.00687	745.25360	897.02246	515.71985	774.59741	834.97070	487.63300	710.42761	808.62390	515.50116	815.10114	757.52344	515.95837	626.13068	1181.35449	36.90718	630.53754	1106.42664	16.49932	654.92474	1050.23389	96.71291	739.94281	1149.06311	19.14557	790.24121	1201.58118	46.87175	835.11969	1145.65601	43.82242	855.23907	1253.93323	14.52315
1720	6.87600	592.17938	1412.48206	278.01740	664.85968	1360.09167	429.11649	624.59302	1366.46973	110.60596	733.78564	1287.37793	255.70226	679.32727	1156.35034	504.83572	679.19226	1068.16443	529.15399	628.75409	1028.88623	462.98154	745.29602	897.02179	515.70404	774.59692	835.00732	487.63983	710.42883	808.65100	515.48389	815.11365	757.56812	515.97565	626.15332	1181.34900	36.89278	630.59808	1106.37891	16.48113	654.90228	1050.21252	96.68195	740.09515	1148.88257	19.10132	790.47839	1201.31775	46.81869	835.28436	1145.33875	43.74328	855.54803	1253.57886	14.47385
1721	6.88000	592.17230	1412.48462	277.97092	664.81866	1360.10608	429.09012	624.63007	1366.47546	110.58182	733.78888	1287.37878	255.70113	679.27759	1156.36340	504.82489	679.15039	1068.17810	529.14038	628.72455	1028.89905	462.96533	745.32562	897.01611	515.68054	774.59906	835.04321	487.64792	710.42316	808.67462	515.46771	815.12421	757.60858	515.99310	626.17383	1181.34851	36.87833	630.65753	1106.34155	16.45642	654.88458	1050.19702	96.64948	740.24695	1148.70032	19.04380	790.71918	1201.05518	46.76250	835.43457	1145.02820	43.66460	855.85590	1253.23767	14.42496
